<?xml version="1.0" standalone="no"?>
<!DOCTYPE svg PUBLIC "-//W3C//DTD SVG 20010904//EN"
 "http://www.w3.org/TR/2001/REC-SVG-20010904/DTD/svg10.dtd">
<svg version="1.0" xmlns="http://www.w3.org/2000/svg"
 width="1920.000000pt" height="1080.000000pt" viewBox="0 0 1920.000000 1080.000000"
 preserveAspectRatio="xMidYMid meet">

<g transform="translate(0.000000,1080.000000) scale(0.100000,-0.100000)"
fill="#000000" stroke="none">
<path d="M1764 7816 c-29 -29 -34 -41 -34 -80 0 -113 141 -158 201 -64 48 77
-4 178 -92 178 -33 0 -47 -6 -75 -34z"/>
<path d="M2503 7832 c-10 -7 -9 -113 7 -523 28 -729 29 -745 87 -851 62 -113
157 -161 323 -162 166 -1 261 43 321 150 l32 55 19 -43 c39 -87 107 -137 216
-158 133 -27 264 13 350 104 27 29 53 62 56 74 10 31 17 28 50 -24 90 -142
334 -204 695 -176 434 33 681 174 707 402 17 152 -84 325 -230 394 -280 133
-627 -44 -917 -466 -33 -49 -64 -88 -69 -88 -18 0 -82 64 -103 104 -19 35 -22
57 -22 154 l0 112 -62 0 -61 0 -7 -52 c-17 -132 -58 -240 -112 -290 -57 -55
-162 -78 -260 -58 -48 10 -66 20 -104 59 -52 52 -69 104 -69 213 l0 61 -37 -7
c-21 -3 -48 -6 -60 -6 -17 0 -22 -8 -28 -42 -30 -194 -116 -282 -274 -281
-153 0 -236 74 -255 228 -5 42 -46 1013 -46 1097 0 28 0 28 -67 28 -38 0 -74
-4 -80 -8z m2537 -902 c128 -36 224 -173 187 -263 -43 -101 -216 -174 -471
-198 -134 -12 -406 -8 -444 8 -23 9 -23 10 35 89 143 192 311 323 474 369 57
16 156 14 219 -5z"/>
<path d="M13418 7817 c-47 -43 -48 -125 -3 -167 28 -26 91 -36 125 -18 36 19
62 75 55 118 -13 81 -119 120 -177 67z"/>
<path d="M13713 7825 c-28 -19 -47 -77 -39 -119 13 -67 92 -104 154 -72 40 21
52 44 52 101 0 65 -39 105 -102 105 -24 0 -53 -7 -65 -15z"/>
<path d="M16403 7832 c-10 -7 -9 -113 7 -523 28 -729 29 -745 87 -851 78 -144
229 -188 542 -159 272 25 424 77 746 256 113 62 235 105 300 105 38 0 45 3 50
23 7 33 25 139 25 149 0 4 -36 8 -79 8 -96 0 -158 18 -363 106 -184 79 -270
108 -372 124 -96 16 -242 8 -316 -17 l-55 -18 -14 -78 c-7 -43 -11 -80 -9 -82
2 -2 28 2 58 11 89 24 263 29 345 10 63 -15 257 -88 393 -148 l53 -24 -143
-63 c-262 -117 -403 -154 -657 -172 -201 -14 -280 1 -338 63 -31 32 -60 104
-67 163 -5 42 -46 1014 -46 1097 0 28 0 28 -67 28 -38 0 -74 -4 -80 -8z"/>
<path d="M4564 7586 c-29 -29 -34 -41 -34 -80 0 -113 141 -158 201 -64 48 77
-4 178 -92 178 -33 0 -47 -6 -75 -34z"/>
<path d="M13624 7413 l-41 -4 4 -87 5 -87 -96 -49 c-140 -72 -212 -121 -293
-202 -101 -99 -138 -178 -137 -289 0 -95 21 -144 85 -199 62 -53 125 -71 244
-70 82 0 114 5 179 28 43 15 79 25 81 24 1 -2 11 -19 23 -38 31 -52 70 -86
137 -117 58 -27 65 -28 220 -27 221 1 438 41 611 110 l65 26 83 -36 c114 -49
234 -82 349 -96 200 -25 301 1 365 97 l35 51 46 -33 c108 -77 225 -119 331
-119 81 -1 121 14 173 63 50 46 70 97 75 191 7 144 -47 297 -140 392 -63 65
-124 92 -209 91 -149 -1 -233 -91 -328 -353 -63 -172 -95 -196 -253 -193 -91
2 -294 33 -320 49 -4 3 18 27 50 54 117 97 177 198 176 300 0 43 -6 76 -17 98
-93 172 -573 199 -945 52 -62 -25 -81 -37 -78 -49 3 -9 8 -44 11 -78 l7 -62
36 18 c77 39 76 39 127 -40 25 -39 91 -118 147 -175 l100 -103 -39 -10 c-159
-42 -461 -70 -559 -52 -32 6 -70 19 -84 29 -33 25 -67 76 -80 121 -12 40 -25
248 -36 569 l-7 212 -31 -2 c-17 -1 -50 -3 -72 -5z m-20 -530 c4 -104 9 -197
11 -209 3 -15 -2 -24 -19 -32 -44 -20 -144 -34 -213 -30 -89 5 -142 31 -167
81 -16 34 -17 44 -6 83 15 52 79 129 149 177 61 43 202 116 222 117 15 0 18
-23 23 -187z m1236 86 c123 -19 181 -63 166 -126 -14 -54 -165 -178 -263 -215
-28 -10 -36 -8 -100 35 -117 78 -280 254 -256 278 30 30 327 49 453 28z m1038
-113 c78 -41 153 -166 160 -268 4 -51 2 -59 -23 -84 -25 -25 -31 -26 -100 -22
-60 4 -89 13 -157 45 -46 23 -98 54 -117 70 l-33 28 26 65 c35 85 69 136 109
160 38 23 97 26 135 6z"/>
<path d="M8382 7346 c-35 -13 -66 -26 -69 -29 -3 -4 13 -70 35 -149 23 -79 62
-223 87 -322 52 -199 51 -206 -8 -264 -65 -63 -191 -97 -330 -90 -110 6 -166
36 -198 106 l-22 49 -56 -12 -56 -11 2 -47 c4 -119 71 -220 171 -257 124 -47
309 -34 438 30 56 27 123 87 150 135 9 16 14 12 41 -37 63 -110 146 -152 303
-153 118 0 157 13 218 74 l47 48 85 -49 c214 -123 396 -126 491 -8 l32 39 19
-24 c11 -14 41 -37 66 -53 46 -26 50 -27 202 -26 300 2 488 58 769 228 99 60
154 90 187 100 19 6 22 2 28 -46 15 -112 84 -207 179 -248 27 -12 90 -27 138
-33 152 -19 241 12 300 103 l31 48 47 -33 c153 -109 347 -151 446 -98 89 47
127 114 133 233 7 144 -47 297 -140 392 -63 65 -124 92 -209 91 -149 -1 -233
-91 -328 -353 -59 -162 -98 -196 -223 -193 -134 2 -224 50 -248 134 -17 57
-15 59 45 59 49 0 55 3 60 23 6 30 25 139 25 148 0 3 -48 9 -107 11 -115 6
-167 21 -393 117 -253 106 -487 130 -649 65 -36 -14 -37 -17 -49 -84 -18 -106
-21 -102 46 -79 75 27 236 36 328 19 85 -16 454 -146 454 -160 0 -3 -78 -42
-173 -87 -264 -125 -418 -162 -692 -166 -132 -2 -146 0 -172 19 -49 37 -92
102 -114 177 -62 214 -207 342 -366 323 -132 -16 -216 -107 -299 -328 -48
-128 -95 -182 -164 -192 -46 -7 -136 6 -168 23 -31 17 -71 65 -91 111 -19 45
-77 252 -146 530 -53 211 -55 220 -63 219 -4 0 -35 -11 -70 -23z m3616 -490
c78 -41 153 -166 160 -268 4 -51 2 -59 -23 -84 -25 -25 -31 -26 -100 -22 -60
4 -89 13 -157 45 -46 23 -98 54 -117 70 l-33 28 26 65 c35 85 69 136 109 160
38 23 97 26 135 6z m-2503 -40 c75 -44 135 -160 135 -260 0 -47 -4 -57 -26
-75 -54 -43 -197 -18 -314 55 -101 62 -96 53 -64 134 28 73 82 146 118 160 42
17 108 11 151 -14z"/>
<path d="M1808 7331 c-75 -24 -147 -79 -191 -143 -53 -77 -70 -131 -71 -223 0
-65 4 -89 23 -129 65 -132 225 -206 446 -206 l87 0 -7 -32 c-4 -18 -9 -36 -11
-39 -5 -9 -140 -47 -247 -69 -257 -52 -654 -64 -807 -25 -162 43 -277 129
-321 242 -30 79 -36 205 -15 308 9 43 15 79 14 80 -10 9 -104 22 -110 17 -15
-15 -48 -167 -54 -246 -9 -110 9 -215 51 -304 110 -234 400 -338 845 -304 355
27 731 130 760 208 52 135 59 391 15 559 -62 241 -227 366 -407 306z m135
-165 c44 -19 92 -71 117 -129 24 -53 50 -165 50 -214 0 -33 0 -33 -49 -33
-125 0 -278 37 -328 79 -33 28 -63 83 -63 116 1 67 59 152 125 181 39 17 108
17 148 0z"/>
<path d="M6730 7103 c-36 -14 -67 -28 -70 -30 -2 -2 7 -25 22 -51 72 -130 138
-341 138 -448 0 -40 -2 -43 -41 -58 -51 -21 -197 -35 -350 -36 l-117 0 -7 78
c-16 177 -71 309 -162 392 -67 61 -132 84 -217 78 -235 -19 -376 -270 -286
-510 50 -136 187 -210 412 -225 l97 -6 -25 -66 c-50 -134 -143 -239 -264 -299
l-74 -37 -136 0 c-122 0 -141 3 -196 26 l-62 26 -14 -66 c-15 -64 -14 -67 6
-83 58 -49 190 -87 297 -88 76 0 199 33 268 72 31 17 92 68 136 112 92 92 159
211 191 334 l18 72 146 0 c299 0 458 39 498 123 36 75 22 282 -33 472 -30 104
-85 237 -100 241 -5 2 -39 -9 -75 -23z m-737 -247 c78 -32 145 -144 167 -278
16 -101 17 -98 -42 -98 -114 1 -236 27 -289 63 -55 37 -79 81 -79 146 0 131
125 217 243 167z"/>
<path d="M17439 6032 c-60 -53 -43 -165 29 -193 39 -15 92 -4 121 26 22 21 26
35 26 81 0 50 -3 58 -33 85 -44 40 -99 40 -143 1z"/>
<path d="M3083 5970 c-30 -12 -63 -67 -63 -105 0 -16 9 -44 20 -62 45 -74 161
-61 188 21 32 99 -52 183 -145 146z"/>
<path d="M3375 5971 c-41 -17 -60 -50 -60 -107 0 -45 4 -58 27 -80 21 -22 36
-27 74 -27 40 0 51 4 76 31 47 53 35 148 -23 178 -31 15 -63 17 -94 5z"/>
<path d="M6684 5962 c-91 -58 -54 -212 52 -212 73 0 114 43 114 120 0 84 -95
136 -166 92z"/>
<path d="M7338 4217 c-47 -43 -48 -125 -3 -167 28 -26 91 -36 125 -18 36 19
62 75 55 118 -13 81 -119 120 -177 67z"/>
<path d="M7633 4225 c-28 -19 -47 -77 -39 -119 13 -67 92 -104 154 -72 40 21
52 44 52 101 0 65 -39 105 -102 105 -24 0 -53 -7 -65 -15z"/>
<path d="M8138 4233 c-27 -4 -27 -5 -22 -66 11 -152 36 -988 30 -1042 -8 -90
-24 -132 -62 -175 -41 -45 -86 -63 -164 -64 -146 -2 -213 54 -239 200 -5 32
-15 210 -22 394 -6 184 -13 336 -14 338 -2 2 -34 0 -73 -3 l-69 -7 4 -87 5
-86 -96 -49 c-140 -72 -212 -121 -293 -202 -101 -99 -138 -178 -137 -289 0
-95 21 -144 85 -199 62 -53 125 -71 244 -70 82 0 114 5 179 28 43 15 79 25 81
24 1 -2 11 -19 23 -38 50 -85 143 -136 263 -146 159 -14 289 42 359 153 l27
42 18 -38 c23 -52 79 -105 140 -133 41 -18 68 -22 150 -22 161 -1 257 44 316
150 l32 55 19 -43 c39 -87 107 -137 216 -158 131 -26 266 8 354 89 l52 48 31
-50 c42 -70 87 -92 185 -92 64 1 83 5 130 30 30 17 68 48 85 71 l32 41 23 -45
c14 -25 42 -56 64 -71 33 -22 51 -26 110 -26 60 0 79 5 124 30 53 29 95 73
124 128 l14 28 12 -26 c26 -57 66 -96 130 -127 62 -31 73 -33 172 -33 93 0
111 3 155 25 34 18 60 42 83 77 l35 51 46 -33 c153 -109 347 -151 446 -98 89
47 127 114 133 233 7 144 -47 297 -140 392 -63 65 -124 92 -209 91 -149 -1
-233 -91 -328 -353 -59 -161 -98 -195 -220 -193 -100 2 -174 38 -208 103 -22
41 -24 55 -21 154 l3 108 -44 -6 c-24 -3 -51 -6 -61 -6 -13 0 -20 -18 -34 -87
-34 -173 -94 -262 -184 -271 -97 -9 -129 42 -119 190 l6 88 -52 0 c-64 0 -72
-6 -82 -50 -13 -62 -46 -140 -72 -171 -36 -43 -74 -59 -138 -59 -49 0 -60 4
-85 28 -39 40 -48 103 -26 200 8 42 14 77 12 80 -3 2 -33 0 -67 -5 l-63 -8
-11 -45 c-20 -75 -41 -117 -85 -164 -64 -69 -182 -99 -296 -76 -49 10 -67 20
-105 59 -52 52 -69 104 -69 213 l0 61 -37 -7 c-21 -3 -48 -6 -60 -6 -17 0 -22
-8 -28 -42 -11 -75 -44 -163 -75 -200 -47 -57 -109 -82 -205 -82 -164 1 -228
63 -254 244 -5 41 -17 271 -26 510 -8 239 -18 472 -21 518 l-6 82 -51 -1 c-29
-1 -64 -4 -79 -6z m-614 -950 c4 -104 9 -197 11 -209 3 -15 -2 -24 -19 -32
-44 -20 -144 -34 -213 -30 -89 5 -142 31 -167 81 -16 34 -17 44 -6 83 15 52
79 129 149 177 61 43 202 116 222 117 15 0 18 -23 23 -187z m3864 -27 c78 -41
153 -166 160 -268 4 -51 2 -59 -23 -84 -25 -25 -31 -26 -100 -22 -60 4 -89 13
-157 45 -46 23 -98 54 -117 70 l-33 28 26 65 c35 85 69 136 109 160 38 23 97
26 135 6z"/>
<path d="M8713 2370 c-30 -12 -63 -67 -63 -105 0 -16 9 -44 20 -62 45 -74 161
-61 188 21 32 99 -52 183 -145 146z"/>
<path d="M9005 2371 c-41 -17 -60 -50 -60 -107 0 -45 4 -58 27 -80 21 -22 36
-27 74 -27 40 0 51 4 76 31 47 53 35 148 -23 178 -31 15 -63 17 -94 5z"/>
</g>
</svg>
